<svg xmlns="http://www.w3.org/2000/svg" id="Layer_1" data-name="Layer 1" viewBox="0 0 1680 600"><defs><style>      .cls-1 {        fill: #f7fafc;        stroke-width: 0px;      }    </style></defs><g><path class="cls-1" d="M717.63,122.66h79.42c30.81,0,48.15,4.79,60.02,17.12,6.39,7.07,9.81,16.89,9.81,27.84s-4.34,21.68-12.1,29.44c-10.27,9.58-26.24,14.61-46.78,14.61h-56.14v58.88h-34.23V122.66ZM796.14,192.04c18.48,0,32.41-7.99,32.41-24.42,0-21.68-17.12-25.1-37.43-25.1h-39.25v49.52h44.27Z"></path><path class="cls-1" d="M896.71,122.66h84.21c32.63,0,47.24,4.34,58.42,15.29,6.85,6.85,10.95,17.34,10.95,28.98,0,8.44-3.88,16.66-10.27,23.05-7.76,7.53-19.63,12.1-32.18,13.46l43.82,67.09h-42.45l-39.02-61.84h-39.25v61.84h-34.23V122.66ZM980.91,189.07c18.26,0,32.41-7.99,32.41-23.05,0-20.31-17.12-23.51-37.65-23.51h-44.73v46.55h49.98Z"></path><path class="cls-1" d="M1105.47,270.54V122.66h34.23v147.88h-34.23Z"></path><path class="cls-1" d="M1337.9,270.54v-110.45l-51.58,87.86h-8.22l-55.45-88.09v110.68h-24.65V122.66h43.36l49.07,77.82,45.64-77.82h36.06v147.88h-34.23Z"></path><path class="cls-1" d="M1431.74,270.54V122.66h125.74v21.22h-91.51v38.8h57.74v21h-57.74v45.41h96.99v21.45h-131.22Z"></path><path class="cls-1" d="M717.63,473.23v-147.88h125.74v21.22h-91.51v38.8h57.74v21h-57.74v45.41h96.99v21.45h-131.22Z"></path><path class="cls-1" d="M1016.69,358.21c-17.34-10.27-39.71-17.34-62.53-17.34-15.75,0-35.6,2.51-35.6,19.63s28.75,17.12,51.12,18.71c29.67,2.05,69.15,9.36,69.15,45.64,0,40.16-42.22,52.49-76.45,52.49-39.48,0-66.41-14.15-83.75-27.38l14.38-17.34c13.92,11.64,37.88,24.42,68.46,24.42,25.33,0,44.5-5.02,44.5-23.51s-23.51-18.71-45.64-19.63c-30.58-1.37-74.17-10.04-74.17-44.5,0-36.97,36.29-48.84,68.23-48.84,34.46,0,57.28,8.67,74.85,20.08l-12.55,17.57Z"></path><path class="cls-1" d="M1108.32,473.23v-126.66h-50.21v-21.22h135.33v21.22h-51.12v126.66h-34Z"></path><path class="cls-1" d="M1327.67,473.23l-16.43-34.92h-74.62l-15.29,34.92h-26.93l70.06-147.88h33.55l69.6,147.88h-39.94ZM1272.68,356.84l-28.07,62.99h57.74l-29.67-62.99Z"></path><path class="cls-1" d="M1414.98,473.23v-126.66h-50.21v-21.22h135.33v21.22h-51.12v126.66h-34Z"></path><path class="cls-1" d="M1536.57,473.23v-147.88h125.74v21.22h-91.51v38.8h57.74v21h-57.74v45.41h96.99v21.45h-131.22Z"></path></g><path class="cls-1" d="M305.99,36.39C144.15,36,12.21,167.61,12.21,329.44c0,97.07,47.2,183.1,119.9,236.43,1.98,1.45,4.78.04,4.78-2.42v-38.69c0-1.49.69-2.9,1.86-3.81l208.43-162.78c1.64-1.28,3.9-1.37,5.64-.23l118.63,78.11c1.36.89,2.18,2.41,2.18,4.04v123.37c0,2.46,2.8,3.88,4.78,2.42,72.7-53.33,119.9-139.36,119.9-236.43,0-161.6-130.81-292.66-292.32-293.05ZM473.62,363.2c0,3.85-4.28,6.16-7.5,4.04l-111.33-73.3c-1.73-1.14-4-1.05-5.64.23l-204.46,159.68c-3.18,2.48-7.81.22-7.81-3.81v-38.17c0-1.49.69-2.9,1.86-3.81l208.43-162.78c1.64-1.28,3.9-1.37,5.64-.23l118.63,78.11c1.36.89,2.18,2.41,2.18,4.04v36.01ZM473.62,250.31c0,3.85-4.28,6.16-7.5,4.04l-111.33-73.3c-1.73-1.14-4-1.05-5.64.23l-204.46,159.68c-3.18,2.48-7.81.22-7.81-3.81v-38.17c0-1.49.69-2.9,1.86-3.81l208.43-162.78c1.64-1.28,3.9-1.37,5.64-.23l118.63,78.11c1.36.89,2.18,2.41,2.18,4.04v36.01Z"></path></svg>